<svg xmlns="http://www.w3.org/2000/svg" viewBox="0 0 1200 630">
  <!-- Background -->
  <rect width="1200" height="630" fill="#f7f6f3"/>

  <!-- Accent border -->
  <rect x="20" y="20" width="1160" height="590" fill="none" stroke="#2eaadc" stroke-width="8" rx="12"/>

  <!-- Logo icon -->
  <g transform="translate(540, 180)">
    <svg width="120" height="120" viewBox="0 0 24 24" fill="none" stroke="#2eaadc" stroke-width="2" stroke-linecap="round" stroke-linejoin="round">
      <path d="M14 2H6a2 2 0 0 0-2 2v16a2 2 0 0 0 2 2h12a2 2 0 0 0 2-2V8z"/>
      <polyline points="14 2 14 8 20 8"/>
      <line x1="16" y1="13" x2="8" y2="13"/>
      <line x1="16" y1="17" x2="8" y2="17"/>
      <polyline points="10 9 9 9 8 9"/>
    </svg>
  </g>

  <!-- Title -->
  <text x="600" y="380" font-family="system-ui, -apple-system, sans-serif" font-size="72" font-weight="700" text-anchor="middle" fill="#37352f">
    Tech Notes
  </text>

  <!-- Description -->
  <text x="600" y="460" font-family="system-ui, -apple-system, sans-serif" font-size="32" font-weight="400" text-anchor="middle" fill="#6b6b6b">
    Technical notes on algorithms, C++, CMake, CUDA, and more
  </text>
</svg>